<svg width="175" height="166" viewBox="0 0 175 166" fill="none" xmlns="http://www.w3.org/2000/svg">
<path d="M85.9792 0.107225C80.4495 2.51213 78.0318 6.68625 78.7262 12.6296L78.5041 20.6408L26.0404 19.7447C24.5699 12.7368 17.9679 7.89636 11.2586 11.7565C4.30432 15.7544 5.92036 24.9988 5.90504 31.5855L0.2987 27.2122C0.20557 27.1406 0.130183 27.0488 0.0783834 26.9438C0.026584 26.8389 -0.000236289 26.7237 1.56836e-06 26.6072V10.7225C-0.000155643 10.6257 0.0235175 10.5304 0.0689319 10.4449C0.114346 10.3594 0.180105 10.2864 0.260405 10.2323L15.7468 0.222109C15.9719 0.0772314 16.2378 0.000126232 16.5127 0L85.9792 0.107225Z" fill="#92A6A4"/>
<path d="M134.606 43.2966L140.128 49.9675C142.824 58.8136 136.061 67.269 126.756 63.7842C124.167 62.5664 122.482 60.1462 120.276 58.3923C120.21 58.0655 120.144 57.8664 120.077 57.7949C108.446 45.7959 96.8348 33.7739 85.2443 21.729C84.9533 21.4303 84.3942 21.2005 84.0572 20.8329C83.9449 20.307 83.6793 19.8781 83.2607 19.5462C81.0038 17.7285 79.4925 15.4231 78.7266 12.6302C78.0322 6.68683 80.4498 2.51271 85.9796 0.107799C90.192 -0.402797 93.8759 1.04219 97.0314 4.44276C103.041 10.9273 115.566 23.8786 134.606 43.2966ZM88.6811 16.674C89.4666 16.6781 90.2453 16.5207 90.9726 16.2109C91.7 15.901 92.3618 15.4446 92.9203 14.8679C93.4788 14.2912 93.923 13.6054 94.2275 12.8497C94.5321 12.094 94.6911 11.2831 94.6954 10.4634C94.704 8.8079 94.0822 7.21694 92.9665 6.04047C91.8509 4.864 90.3329 4.1984 88.7465 4.19009C87.961 4.18597 87.1823 4.34335 86.455 4.65324C85.7276 4.96312 85.0658 5.41945 84.5073 5.99616C83.9489 6.57287 83.5047 7.25867 83.2001 8.01441C82.8955 8.77014 82.7366 9.58101 82.7323 10.4007C82.7236 12.0562 83.3455 13.6472 84.4611 14.8236C85.5767 16.0001 87.0947 16.6657 88.6811 16.674ZM130.793 60.4373C131.585 60.44 132.369 60.2823 133.102 59.9731C133.834 59.6639 134.5 59.2092 135.062 58.6351C135.624 58.061 136.07 57.3787 136.375 56.627C136.681 55.8754 136.84 55.0693 136.843 54.2546C136.845 53.4399 136.692 52.6326 136.392 51.8789C136.092 51.1252 135.65 50.4397 135.092 49.8617C134.535 49.2837 133.872 48.8244 133.142 48.5101C132.411 48.1957 131.628 48.0325 130.837 48.0298C130.045 48.027 129.261 48.1847 128.528 48.4939C127.796 48.8031 127.13 49.2578 126.568 49.8319C126.006 50.406 125.56 51.0884 125.255 51.84C124.949 52.5916 124.79 53.3978 124.787 54.2125C124.785 55.0271 124.938 55.8344 125.238 56.5881C125.538 57.3419 125.98 58.0273 126.538 58.6053C127.095 59.1834 127.758 59.6427 128.488 59.957C129.219 60.2713 130.002 60.4345 130.793 60.4373Z" fill="#FFDE00"/>
<path d="M88.6804 16.6744C87.094 16.6661 85.576 16.0005 84.4604 14.824C83.3447 13.6476 82.7229 12.0566 82.7315 10.4011C82.7358 9.58143 82.8948 8.77056 83.1994 8.01483C83.5039 7.25909 83.9481 6.57329 84.5066 5.99658C85.0651 5.41987 85.7269 4.96354 86.4543 4.65366C87.1816 4.34377 87.9603 4.18639 88.7458 4.19051C90.3322 4.19882 91.8502 4.86442 92.9658 6.04089C94.0814 7.21736 94.7033 8.80832 94.6946 10.4638C94.6903 11.2835 94.5314 12.0944 94.2268 12.8501C93.9222 13.6058 93.478 14.2916 92.9196 14.8684C92.3611 15.4451 91.6993 15.9014 90.9719 16.2113C90.2446 16.5212 89.4659 16.6785 88.6804 16.6744ZM91.6924 10.4478C91.6924 9.65355 91.3769 8.89186 90.8153 8.33025C90.2537 7.76865 89.492 7.45314 88.6978 7.45314C87.9035 7.45314 87.1418 7.76865 86.5802 8.33025C86.0186 8.89186 85.7031 9.65355 85.7031 10.4478C85.7031 11.242 86.0186 12.0037 86.5802 12.5653C87.1418 13.1269 87.9035 13.4424 88.6978 13.4424C89.492 13.4424 90.2537 13.1269 90.8153 12.5653C91.3769 12.0037 91.6924 11.242 91.6924 10.4478Z" fill="#333D3E"/>
<path d="M88.6987 13.4414C90.3526 13.4414 91.6934 12.1007 91.6934 10.4468C91.6934 8.7929 90.3526 7.45215 88.6987 7.45215C87.0448 7.45215 85.7041 8.7929 85.7041 10.4468C85.7041 12.1007 87.0448 13.4414 88.6987 13.4414Z" fill="#FFAB00"/>
<path d="M26.0396 19.7454L26.1238 28.6298C26.1241 28.7438 26.1597 28.8548 26.2257 28.9468C26.2917 29.0389 26.3846 29.1075 26.4915 29.1429C38.3322 33.2277 50.1346 37.3329 61.8987 41.4585C67.0609 43.2711 71.7864 46.7049 76.0754 51.7598C62.3583 53.9809 56.2158 61.479 56.323 75.2421C56.3588 80.0417 56.2847 84.8387 56.1009 89.6332C55.5393 89.4596 55.0236 89.2018 54.5538 88.8597C46.6089 83.0133 38.6513 77.1823 30.6809 71.3667C24.1861 66.6334 27.9773 60.4144 22.8075 54.9306C18.8963 50.7845 14.952 46.6691 10.9744 42.5844C7.55856 39.0689 6.01145 36.2428 5.90423 31.5861C5.91955 24.9994 4.30351 15.7551 11.2578 11.7571C17.9671 7.89703 24.5691 12.7375 26.0396 19.7454ZM16.1302 27.0435C16.9206 27.0297 17.7005 26.8552 18.4253 26.5299C19.1501 26.2047 19.8057 25.7351 20.3545 25.1479C20.9034 24.5607 21.3348 23.8675 21.6241 23.1078C21.9134 22.3481 22.0549 21.5368 22.0407 20.7202C22.0119 19.0711 21.3502 17.5006 20.201 16.3541C19.0519 15.2077 17.5095 14.5793 15.9132 14.6072C15.1227 14.621 14.3428 14.7955 13.618 15.1207C12.8932 15.446 12.2377 15.9156 11.6888 16.5027C11.14 17.0899 10.7086 17.7831 10.4193 18.5428C10.13 19.3025 9.98842 20.1138 10.0027 20.9304C10.0315 22.5795 10.6932 24.1501 11.8423 25.2965C12.9915 26.4429 14.5339 27.0713 16.1302 27.0435Z" fill="#FFDE00"/>
<path d="M78.726 12.6299C79.4919 15.4228 81.0033 17.7282 83.2601 19.5459C83.6788 19.8778 83.9443 20.3067 84.0566 20.8326L78.5039 20.6411L78.726 12.6299Z" fill="#5F6D6E"/>
<path d="M16.1305 27.0426C14.5341 27.0705 12.9917 26.4421 11.8426 25.2957C10.6935 24.1493 10.0317 22.5787 10.0029 20.9296C9.98867 20.113 10.1302 19.3017 10.4196 18.542C10.7089 17.7823 11.1403 17.0891 11.6891 16.5019C12.2379 15.9147 12.8935 15.4451 13.6183 15.1199C14.3431 14.7947 15.123 14.6202 15.9134 14.6064C17.5098 14.5785 19.0521 15.2069 20.2013 16.3533C21.3504 17.4997 22.0122 19.0703 22.0409 20.7194C22.0552 21.536 21.9136 22.3473 21.6243 23.107C21.335 23.8667 20.9036 24.5599 20.3548 25.1471C19.8059 25.7343 19.1504 26.2039 18.4256 26.5291C17.7008 26.8543 16.9209 27.0288 16.1305 27.0426ZM19.0242 20.8092C19.0242 20.019 18.7104 19.2612 18.1516 18.7025C17.5929 18.1437 16.8351 17.8299 16.0449 17.8299C15.2547 17.8299 14.4969 18.1437 13.9382 18.7025C13.3795 19.2612 13.0656 20.019 13.0656 20.8092C13.0656 21.2004 13.1427 21.5878 13.2924 21.9493C13.4421 22.3108 13.6616 22.6392 13.9382 22.9159C14.2149 23.1925 14.5433 23.412 14.9048 23.5617C15.2662 23.7114 15.6537 23.7885 16.0449 23.7885C16.4362 23.7885 16.8236 23.7114 17.1851 23.5617C17.5465 23.412 17.875 23.1925 18.1516 22.9159C18.4283 22.6392 18.6477 22.3108 18.7975 21.9493C18.9472 21.5878 19.0242 21.2004 19.0242 20.8092Z" fill="#333D3E"/>
<path d="M16.0448 23.7887C17.6902 23.7887 19.0241 22.4548 19.0241 20.8094C19.0241 19.164 17.6902 17.8301 16.0448 17.8301C14.3993 17.8301 13.0654 19.164 13.0654 20.8094C13.0654 22.4548 14.3993 23.7887 16.0448 23.7887Z" fill="#FFAB00"/>
<path d="M140.128 49.9669L134.605 43.296L141.499 36.3953C141.581 36.313 141.679 36.2488 141.787 36.2066C141.896 36.1644 142.011 36.1452 142.127 36.1502L158.8 36.6021C159.046 36.6117 159.279 36.7159 159.451 36.8931L174.532 52.4944C174.713 52.6811 174.815 52.9285 174.815 53.1837V64.113C174.815 64.3636 174.716 64.6055 174.539 64.787L162.361 77.4548C162.323 77.494 162.277 77.5251 162.226 77.5463C162.176 77.5675 162.121 77.5784 162.067 77.5784C162.012 77.5784 161.957 77.5675 161.907 77.5463C161.856 77.5251 161.81 77.494 161.772 77.4548L159.451 75.0959C159.366 75.0083 159.319 74.8903 159.321 74.7672C159.322 74.6441 159.372 74.5256 159.459 74.4372L165.915 67.9271C166.097 67.7403 166.199 67.493 166.199 67.2378V56.0404C166.199 55.7808 166.097 55.5307 165.915 55.3435L156.717 45.7851C156.671 45.7386 156.616 45.7016 156.556 45.6763C156.496 45.6511 156.431 45.638 156.366 45.638C156.301 45.638 156.237 45.6511 156.178 45.6763C156.118 45.7016 156.064 45.7386 156.02 45.7851L153.898 48.0369C153.805 48.1375 153.69 48.2164 153.563 48.268C153.436 48.3197 153.3 48.3427 153.163 48.3356L142.28 47.9296C142.17 47.9246 142.06 47.9447 141.958 47.9885C141.855 48.0322 141.764 48.0985 141.69 48.1824L140.128 49.9669Z" fill="#5F6D6E"/>
<path d="M130.793 60.4368C130.002 60.4341 129.218 60.2709 128.488 59.9565C127.758 59.6422 127.095 59.1829 126.537 58.6049C125.98 58.0269 125.538 57.3414 125.238 56.5877C124.937 55.834 124.784 55.0267 124.787 54.212C124.79 53.3973 124.949 52.5912 125.254 51.8395C125.56 51.0879 126.006 50.4056 126.568 49.8315C127.13 49.2573 127.796 48.8027 128.528 48.4935C129.26 48.1843 130.045 48.0266 130.836 48.0293C131.628 48.0321 132.411 48.1953 133.141 48.5096C133.872 48.8239 134.535 49.2832 135.092 49.8612C135.65 50.4393 136.092 51.1247 136.392 51.8785C136.692 52.6322 136.845 53.4394 136.842 54.2541C136.839 55.0688 136.681 55.875 136.375 56.6266C136.07 57.3782 135.623 58.0606 135.062 58.6347C134.5 59.2088 133.834 59.6634 133.101 59.9726C132.369 60.2819 131.585 60.4396 130.793 60.4368ZM133.802 54.2101C133.802 53.4179 133.487 52.6581 132.927 52.098C132.367 51.5378 131.607 51.2231 130.815 51.2231C130.023 51.2231 129.263 51.5378 128.703 52.098C128.142 52.6581 127.828 53.4179 127.828 54.2101C127.828 55.0023 128.142 55.762 128.703 56.3222C129.263 56.8824 130.023 57.1971 130.815 57.1971C131.607 57.1971 132.367 56.8824 132.927 56.3222C133.487 55.762 133.802 55.0023 133.802 54.2101Z" fill="#333D3E"/>
<path d="M130.815 57.1966C132.465 57.1966 133.802 55.8593 133.802 54.2096C133.802 52.56 132.465 51.2227 130.815 51.2227C129.165 51.2227 127.828 52.56 127.828 54.2096C127.828 55.8593 129.165 57.1966 130.815 57.1966Z" fill="#FFAB00"/>
<path d="M76.0761 51.7588C84.7766 52.4558 92.2977 57.3881 95.1085 65.7134C95.8846 68.0213 96.2829 71.6439 96.3033 76.5814C96.3289 82.6422 96.3212 88.7055 96.2804 94.7714H56.3237L56.1016 89.6322C56.2854 84.8377 56.3594 80.0407 56.3237 75.2411C56.2164 61.478 62.3589 53.9799 76.0761 51.7588ZM76.3196 83.1294C78.9662 83.1063 81.4949 81.9941 83.3495 80.0373C85.204 78.0806 86.2324 75.4396 86.2085 72.6955C86.1966 71.3367 85.9267 69.9935 85.4143 68.7426C84.9018 67.4916 84.1568 66.3574 83.2218 65.4047C82.2867 64.452 81.18 63.6994 79.9647 63.19C78.7494 62.6806 77.4494 62.4243 76.139 62.4357C73.4923 62.4588 70.9636 63.5711 69.109 65.5278C67.2545 67.4846 66.2261 70.1255 66.25 72.8697C66.2619 74.2284 66.5318 75.5716 67.0442 76.8226C67.5567 78.0736 68.3017 79.2078 69.2367 80.1605C70.1718 81.1132 71.2785 81.8657 72.4938 82.3751C73.7091 82.8846 75.0091 83.1409 76.3196 83.1294Z" fill="#92A6A4"/>
<path d="M120.276 58.3916C122.482 60.1455 124.167 62.5657 126.756 63.7835L124.841 65.5068L119.097 59.7013L120.276 58.3916Z" fill="#333D3E"/>
<path d="M119.096 59.7012L124.841 65.5066C124.749 68.9327 124.843 72.3767 125.124 75.8386C125.267 77.6256 124.44 79.1549 122.643 80.4263C122.603 80.4539 122.57 80.4896 122.546 80.5311C122.521 80.5726 122.506 80.6189 122.501 80.6668C122.496 80.7147 122.501 80.7631 122.516 80.8088C122.531 80.8546 122.556 80.8965 122.589 80.9317L131.925 90.6663C132.01 90.7536 132.111 90.8231 132.221 90.8704C132.332 90.9178 132.45 90.9421 132.569 90.942H143.192C143.334 90.9418 143.476 90.9126 143.608 90.8559C143.739 90.7993 143.858 90.7166 143.957 90.6126L150.399 83.9111C150.44 83.867 150.49 83.832 150.546 83.8083C150.601 83.7846 150.661 83.7727 150.722 83.7735C150.782 83.7742 150.842 83.7875 150.897 83.8125C150.952 83.8375 151.002 83.8737 151.042 83.9187L153.156 86.2624C153.244 86.3596 153.291 86.4867 153.288 86.6177C153.285 86.7487 153.233 86.8737 153.14 86.967L141.131 99.4587C141.049 99.5459 140.949 99.6152 140.839 99.6627C140.728 99.7101 140.609 99.7345 140.488 99.7344L129.773 99.7881C129.64 99.7879 129.508 99.7614 129.386 99.7101C129.263 99.6588 129.153 99.5838 129.061 99.4894L114.057 83.8958C113.879 83.7088 113.778 83.4629 113.774 83.2065L113.329 66.0428C113.324 65.7978 113.415 65.5613 113.582 65.3841L119.096 59.7012Z" fill="#5F6D6E"/>
<path d="M76.3199 83.1306C75.0094 83.142 73.7094 82.8857 72.4942 82.3763C71.2789 81.8669 70.1721 81.1143 69.2371 80.1616C68.3021 79.2089 67.557 78.0747 67.0446 76.8238C66.5321 75.5728 66.2623 74.2296 66.2504 72.8708C66.2265 70.1267 67.2549 67.4857 69.1094 65.529C70.9639 63.5723 73.4927 62.46 76.1393 62.4369C77.4498 62.4255 78.7498 62.6818 79.9651 63.1912C81.1804 63.7006 82.2871 64.4531 83.2221 65.4058C84.1572 66.3585 84.9022 67.4927 85.4147 68.7437C85.9271 69.9947 86.197 71.3379 86.2088 72.6966C86.2328 75.4408 85.2044 78.0817 83.3498 80.0385C81.4953 81.9952 78.9666 83.1075 76.3199 83.1306ZM82.3568 72.7684C82.3568 71.1454 81.712 69.5889 80.5644 68.4413C79.4168 67.2937 77.8603 66.6489 76.2373 66.6489C74.6143 66.6489 73.0578 67.2937 71.9101 68.4413C70.7625 69.5889 70.1178 71.1454 70.1178 72.7684C70.1178 74.3914 70.7625 75.9479 71.9101 77.0955C73.0578 78.2432 74.6143 78.8879 76.2373 78.8879C77.8603 78.8879 79.4168 78.2432 80.5644 77.0955C81.712 75.9479 82.3568 74.3914 82.3568 72.7684Z" fill="#5F6D6E"/>
<path d="M82.3562 72.7679C82.3562 74.3909 81.7114 75.9474 80.5638 77.0951C79.4162 78.2427 77.8597 78.8874 76.2367 78.8874C74.6137 78.8874 73.0572 78.2427 71.9095 77.0951C70.7619 75.9474 70.1172 74.3909 70.1172 72.7679C70.1172 71.1449 70.7619 69.5884 71.9095 68.4408C73.0572 67.2932 74.6137 66.6484 76.2367 66.6484C77.8597 66.6484 79.4162 67.2932 80.5638 68.4408C81.7114 69.5884 82.3562 71.1449 82.3562 72.7679ZM79.2007 72.7373C79.2007 71.9431 78.8852 71.1814 78.3236 70.6198C77.762 70.0582 77.0003 69.7426 76.206 69.7426C75.4118 69.7426 74.6501 70.0582 74.0885 70.6198C73.5269 71.1814 73.2114 71.9431 73.2114 72.7373C73.2114 73.5315 73.5269 74.2932 74.0885 74.8548C74.6501 75.4164 75.4118 75.7319 76.206 75.7319C77.0003 75.7319 77.762 75.4164 78.3236 74.8548C78.8852 74.2932 79.2007 73.5315 79.2007 72.7373Z" fill="#333D3E"/>
<path d="M76.2066 75.7325C77.8605 75.7325 79.2012 74.3917 79.2012 72.7378C79.2012 71.0839 77.8605 69.7432 76.2066 69.7432C74.5527 69.7432 73.2119 71.0839 73.2119 72.7378C73.2119 74.3917 74.5527 75.7325 76.2066 75.7325Z" fill="#FFAB00"/>
<path d="M56.3236 94.7715H96.2803L96.3109 97.8044C82.9742 97.5389 69.6348 97.5389 56.293 97.8044L56.3236 94.7715Z" fill="#5F6D6E"/>
<path d="M96.3106 97.8046C101.22 99.7117 102.239 102.997 102.269 108.251C102.325 117.861 102.308 127.473 102.216 137.087C93.7397 137.261 85.2613 137.302 76.7803 137.21C61.2096 137.034 45.662 137.34 30.0914 137.087C30.0531 132.561 29.1723 124.243 31.133 120.628C34.4493 114.501 44.1685 116.546 50.1348 116.217C51.8453 116.38 55.8126 116.452 62.0368 116.431C72.0853 116.406 82.1313 116.398 92.1747 116.408C92.7032 116.408 93.5074 115.941 93.5763 115.458C93.596 115.316 93.585 115.171 93.544 115.034C93.503 114.896 93.4329 114.769 93.3385 114.661C93.2441 114.553 93.1277 114.466 92.9969 114.407C92.8662 114.348 92.7242 114.317 92.5807 114.317C82.1134 114.317 71.9117 114.305 61.9755 114.279C58.2763 114.271 54.2553 113.927 50.1961 114.685C50.1731 108.267 48.4958 100.623 56.2926 97.8046C69.6345 97.5391 82.9738 97.5391 96.3106 97.8046Z" fill="#FFDE00"/>
<path d="M50.1357 116.217L50.197 114.685C54.2563 113.927 58.2772 114.271 61.9765 114.279C71.9127 114.305 82.1144 114.317 92.5816 114.317C92.7251 114.317 92.8671 114.348 92.9978 114.407C93.1286 114.466 93.2451 114.553 93.3394 114.661C93.4338 114.769 93.5039 114.896 93.5449 115.034C93.5859 115.172 93.597 115.316 93.5772 115.459C93.5083 115.941 92.7041 116.408 92.1757 116.408C82.1322 116.398 72.0863 116.406 62.0377 116.431C55.8136 116.452 51.8462 116.38 50.1357 116.217Z" fill="#FFAB00"/>
<path d="M30.0922 137.087C45.6628 137.34 61.2104 137.034 76.781 137.21C85.262 137.302 93.7405 137.261 102.216 137.087C102.339 142.257 99.6047 142.839 96.5028 145.482H30.0615L30.0922 137.087Z" fill="#FFAB00"/>
<path d="M30.0611 145.482H96.5023C103.326 145.221 110.151 145.742 110.258 153.937C80.9164 154.282 51.4295 153.73 22.0498 153.83C22.3357 149.061 25.0062 146.278 30.0611 145.482Z" fill="#5F6D6E"/>
<path d="M110.258 153.937L110.48 155.821H22.0195L22.0502 153.83C51.4299 153.73 80.9168 154.281 110.258 153.937Z" fill="#333D3E"/>
<path d="M22.0197 155.821H110.48C117.259 156.12 125.415 154.336 126.342 164.085C126.092 164.157 125.847 164.193 125.607 164.193C85.7957 164.234 45.9769 164.274 6.15039 164.315C6.21932 154.81 15.502 155.791 22.0197 155.821Z" fill="#FFDE00"/>
<path d="M126.342 164.085L126.135 166H6.4639C5.84097 165.765 5.7363 165.204 6.14988 164.315C45.9764 164.274 85.7952 164.234 125.606 164.193C125.846 164.193 126.091 164.157 126.342 164.085Z" fill="#FFAB00"/>
</svg>
