<svg width="183" height="166" viewBox="0 0 183 166" fill="none" xmlns="http://www.w3.org/2000/svg">
<path d="M163.144 58.4398L156.115 62.4979L136.881 29.4814C137.427 28.9246 138.007 28.4019 138.622 27.9133C144.981 22.9018 142.877 12.7053 135.769 10.0419C128.362 7.26818 121.869 12.2246 121.121 20.0256L63.2514 27.6848C63.1379 27.6984 63.0234 27.6777 62.9234 27.6256C62.8233 27.5735 62.7426 27.4924 62.6919 27.3933C52.6373 8.03252 24.3802 12.1379 21.7484 34.4221C21.7353 34.5336 21.6869 34.638 21.6104 34.7202C21.5339 34.8024 21.4332 34.8581 21.3228 34.8791L6.54029 37.6764C5.29527 30.4638 3.96621 23.2038 2.55309 15.8966C1.15836 8.69443 6.23297 6.88207 12.3792 5.77889C21.6722 4.11362 30.9651 2.41158 40.2581 0.672764C46.2783 -0.454051 50.9195 -0.918961 53.0155 5.5819C53.0474 5.67928 53.1083 5.76463 53.1899 5.82657C53.2716 5.88851 53.3702 5.9241 53.4725 5.92861C72.6888 6.78488 91.8815 7.72258 111.05 8.74171C114.076 8.89931 117.102 8.98073 120.128 8.98598C120.384 8.98583 120.63 8.90273 120.829 8.74959C125.975 4.85695 135.462 0.302412 141.159 4.7624C142.515 5.81829 143.954 7.95373 145.477 11.1687C152.585 26.1719 157.817 42.7116 163.144 58.4398Z" fill="#F8A036"/>
<path d="M136.881 29.4815C128.307 32.3577 122.516 28.5438 121.121 20.0258C121.87 12.2247 128.363 7.26831 135.77 10.042C142.877 12.7054 144.981 22.9019 138.622 27.9135C138.008 28.402 137.427 28.9247 136.881 29.4815ZM137.354 19.8839C137.354 19.1585 137.211 18.4402 136.933 17.7701C136.655 17.0999 136.249 16.491 135.736 15.978C135.223 15.4651 134.614 15.0582 133.944 14.7806C133.273 14.503 132.555 14.3602 131.83 14.3602C130.365 14.3602 128.96 14.9421 127.924 15.978C126.888 17.0139 126.306 18.4189 126.306 19.8839C126.306 21.3489 126.888 22.7539 127.924 23.7898C128.96 24.8257 130.365 25.4077 131.83 25.4077C133.295 25.4077 134.7 24.8257 135.736 23.7898C136.772 22.7539 137.354 21.3489 137.354 19.8839Z" fill="#FCB040"/>
<path d="M131.829 25.4079C134.88 25.4079 137.353 22.9348 137.353 19.8841C137.353 16.8334 134.88 14.3604 131.829 14.3604C128.779 14.3604 126.306 16.8334 126.306 19.8841C126.306 22.9348 128.779 25.4079 131.829 25.4079Z" fill="#414143"/>
<path d="M121.121 20.026C122.515 28.5441 128.307 32.3579 136.88 29.4818L156.115 62.4983L149.914 66.1545C139.664 54.7287 129.76 42.9852 120.199 30.9238C120.126 30.8288 120.027 30.7558 119.915 30.7127C119.802 30.6696 119.68 30.6581 119.56 30.6795L64.5356 41.0336C64.4021 41.0577 64.2775 41.1172 64.175 41.2059C64.0724 41.2946 63.9955 41.4093 63.9525 41.5379L62.8414 44.8159C57.4989 54.7445 49.1042 58.8263 37.6575 57.0612C32.8035 55.48 28.7979 52.6905 25.6407 48.6928C25.5676 48.5978 25.4694 48.5248 25.3569 48.4817C25.2443 48.4386 25.1217 48.4271 25.0025 48.4485C21.4723 49.0632 16.0825 50.6943 12.9306 49.7723C7.40682 48.157 7.4935 42.3732 6.54004 37.6768L21.3226 34.8795C21.4329 34.8584 21.5336 34.8028 21.6102 34.7206C21.6867 34.6384 21.735 34.534 21.7481 34.4224C24.38 12.1383 52.637 8.03288 62.6917 27.3936C62.7423 27.4927 62.8231 27.5738 62.9231 27.6259C63.0232 27.6781 63.1377 27.6988 63.2512 27.6852L121.121 20.026ZM59.39 36.2506C59.39 31.9266 57.6724 27.7798 54.6149 24.7223C51.5574 21.6649 47.4106 19.9472 43.0867 19.9472C38.7628 19.9472 34.6159 21.6649 31.5585 24.7223C28.501 27.7798 26.7833 31.9266 26.7833 36.2506C26.7833 40.5745 28.501 44.7213 31.5585 47.7788C34.6159 50.8362 38.7628 52.5539 43.0867 52.5539C47.4106 52.5539 51.5574 50.8362 54.6149 47.7788C57.6724 44.7213 59.39 40.5745 59.39 36.2506Z" fill="#F7941D"/>
<path d="M43.0875 52.554C52.0916 52.554 59.3909 45.2547 59.3909 36.2506C59.3909 27.2465 52.0916 19.9473 43.0875 19.9473C34.0834 19.9473 26.7842 27.2465 26.7842 36.2506C26.7842 45.2547 34.0834 52.554 43.0875 52.554Z" fill="#414143"/>
<path d="M62.8421 44.8154L84.1571 88.5091C75.6364 87.0172 68.471 89.1605 62.6609 94.939C61.1795 96.4125 60.1157 98.4377 58.7367 100.203L37.6582 57.0607C49.105 58.8258 57.4996 54.744 62.8421 44.8154Z" fill="#E07D15"/>
<path d="M172.765 59.1966C163.75 64.3763 154.723 69.5323 145.682 74.6647C145.467 74.7856 145.235 74.8827 144.989 74.9563C143.255 75.5762 141.999 75.1953 141.222 73.8137C141.096 73.5916 141.062 73.3259 141.127 73.073C141.939 69.9053 147.226 67.7147 149.913 66.1545L156.115 62.4983L163.144 58.4402C165.768 57.0139 171.733 52.4594 174.325 55.17C174.412 55.2616 174.477 55.3702 174.518 55.4885C174.559 55.6068 174.574 55.7319 174.562 55.8556C174.404 57.2109 173.805 58.3246 172.765 59.1966Z" fill="#231F20"/>
<path d="M170.599 66.5483L164.689 70.2282C162.503 70.9952 160.589 72.1877 158.944 73.8057H158.598C158.351 73.8057 158.117 73.8661 157.896 73.9869L152.672 76.9261C150.316 78.3523 147.322 80.6611 144.438 79.2743C144.263 79.1904 144.107 79.0724 143.979 78.9272C143.85 78.7821 143.752 78.6127 143.691 78.429C143.629 78.2454 143.605 78.0512 143.619 77.8581C143.634 77.6649 143.687 77.4766 143.776 77.3043L144.989 74.9561C145.236 74.8826 145.467 74.7854 145.683 74.6646C154.723 69.5322 163.751 64.3761 172.766 59.1965C173.779 58.8235 174.841 58.7447 175.949 58.9601C176.197 59.0108 176.416 59.1514 176.564 59.3541C178.896 62.6163 173.396 65.0512 170.599 66.5483Z" fill="#414143"/>
<path d="M170.598 66.5485C173.538 66.4776 175.665 66.9582 177.548 69.464C179.353 71.8516 182.544 74.6489 182.324 77.3438C182.05 80.6166 181.803 83.9025 181.583 87.2015C181.581 87.2412 181.569 87.2797 181.548 87.3131C181.527 87.3465 181.496 87.3735 181.461 87.3912C181.426 87.409 181.386 87.4168 181.346 87.4139C181.307 87.4111 181.269 87.3976 181.236 87.3749L178.423 85.4443C178.318 85.3726 178.233 85.2737 178.178 85.1575C178.122 85.0413 178.098 84.9119 178.108 84.7824C178.281 82.6706 179.51 77.5802 178.313 75.9649C176.926 74.1 175.502 72.2719 174.042 70.4805C173.966 70.3847 173.868 70.3073 173.756 70.2541C173.644 70.2009 173.521 70.1732 173.396 70.1732L164.688 70.2284L170.598 66.5485ZM175.286 68.5961C175.251 68.4198 175.124 68.2691 174.934 68.1772C174.744 68.0852 174.506 68.0596 174.273 68.1059C174.039 68.1521 173.829 68.2665 173.688 68.4239C173.548 68.5813 173.488 68.7687 173.523 68.9451C173.558 69.1214 173.684 69.2721 173.874 69.364C174.064 69.4559 174.302 69.4816 174.536 69.4353C174.77 69.3891 174.98 69.2747 175.12 69.1173C175.261 68.9599 175.32 68.7724 175.286 68.5961ZM181.528 76.4219C181.547 76.3112 181.541 76.1976 181.51 76.0896C181.479 75.9816 181.424 75.8821 181.349 75.7986C181.273 75.7151 181.18 75.6498 181.076 75.6076C180.972 75.5654 180.86 75.5475 180.748 75.5551L180.44 75.5788C180.301 75.5903 180.17 75.6454 180.065 75.7362C179.96 75.8269 179.887 75.9485 179.857 76.0831C179.629 77.1784 181.283 77.7694 181.528 76.4219Z" fill="#595A5B"/>
<path d="M174.536 69.4353C175.023 69.3389 175.358 68.9632 175.286 68.5961C175.213 68.2289 174.759 68.0094 174.273 68.1058C173.786 68.2022 173.451 68.5779 173.523 68.945C173.596 69.3122 174.049 69.5317 174.536 69.4353Z" fill="#231F20"/>
<path d="M158.944 73.8057L154.571 81.0315C154.507 81.137 154.469 81.2554 154.459 81.3772C154.45 81.499 154.469 81.6208 154.516 81.7328L157.47 88.8877C157.587 89.1606 157.804 89.378 158.077 89.4944L164.799 92.3233C164.934 92.3802 165.051 92.4728 165.137 92.5908C165.223 92.7089 165.275 92.848 165.287 92.993L165.516 96.011C165.52 96.0756 165.507 96.1401 165.479 96.1984C165.451 96.2567 165.408 96.3068 165.355 96.344C165.303 96.3811 165.241 96.4041 165.177 96.4106C165.112 96.4172 165.047 96.4071 164.988 96.3814C162.577 95.294 155.335 92.7488 154.413 90.4242C153.462 88.034 152.496 85.6517 151.513 83.2772C151.414 83.0408 151.364 82.7939 151.364 82.5365L151.356 80.2277C151.35 79.9926 151.422 79.7627 151.561 79.5737C152.149 78.7647 152.519 77.8822 152.672 76.9261L157.896 73.9869C158.117 73.8661 158.35 73.8057 158.597 73.8057H158.944ZM152.112 81.5594C152.101 81.6299 152.116 81.702 152.154 81.7627C152.191 81.8234 152.249 81.8687 152.317 81.8904C154.996 82.7256 152.648 77.4777 152.112 81.5594ZM156.738 89.589C155.343 89.1556 155.185 90.6055 156.115 91.0625C156.182 91.0948 156.255 91.1123 156.329 91.114C156.403 91.1156 156.476 91.1012 156.543 91.0718C156.61 91.0424 156.67 90.9988 156.717 90.9441C156.764 90.8893 156.798 90.8248 156.816 90.7552L157.006 90.0854C157.035 89.984 157.023 89.8752 156.973 89.7823C156.923 89.6894 156.839 89.6199 156.738 89.589Z" fill="#595A5B"/>
<path d="M181.528 76.4222C181.284 77.7697 179.629 77.1787 179.858 76.0834C179.887 75.9488 179.96 75.8272 180.065 75.7365C180.17 75.6457 180.302 75.5906 180.441 75.5791L180.748 75.5554C180.86 75.5478 180.972 75.5657 181.077 75.6079C181.181 75.6501 181.274 75.7154 181.349 75.7989C181.424 75.8824 181.479 75.9819 181.51 76.0899C181.541 76.1979 181.547 76.3115 181.528 76.4222Z" fill="#231F20"/>
<path d="M152.112 81.5596C152.648 77.4779 154.996 82.7259 152.317 81.8906C152.249 81.8689 152.191 81.8236 152.153 81.7629C152.116 81.7023 152.101 81.6302 152.112 81.5596Z" fill="#231F20"/>
<path d="M84.1567 88.509L84.5743 88.8951C84.7634 89.0685 84.9788 89.1998 85.2204 89.2891C98.1355 94.1431 103.273 108.571 96.4098 120.564C96.3834 120.614 96.3709 120.67 96.3736 120.727C96.3764 120.784 96.3943 120.839 96.4256 120.887L96.5595 121.084C94.1115 123.769 92.2414 125.586 90.9491 126.537C79.3578 135.063 64.1892 130.351 58.3423 117.538C56.3199 111.712 56.4512 105.934 58.7363 100.203C60.1153 98.4376 61.1791 96.4125 62.6605 94.939C68.4705 89.1604 75.6359 87.0171 84.1567 88.509ZM94.4714 109.469C94.4714 107.329 94.0499 105.21 93.2309 103.233C92.412 101.256 91.2117 99.4599 89.6985 97.9467C88.1853 96.4335 86.3889 95.2332 84.4119 94.4143C82.4348 93.5954 80.3158 93.1739 78.1759 93.1739C73.854 93.1739 69.7092 94.8907 66.6532 97.9467C63.5972 101.003 61.8804 105.148 61.8804 109.469C61.8804 113.791 63.5972 117.936 66.6532 120.992C69.7092 124.048 73.854 125.765 78.1759 125.765C80.3158 125.765 82.4348 125.343 84.4119 124.524C86.3889 123.706 88.1853 122.505 89.6985 120.992C91.2117 119.479 92.412 117.682 93.2309 115.705C94.0499 113.728 94.4714 111.609 94.4714 109.469Z" fill="#F7941D"/>
<path d="M156.738 89.5887C156.839 89.6197 156.923 89.6891 156.974 89.782C157.024 89.8749 157.035 89.9838 157.006 90.0851L156.817 90.7549C156.798 90.8246 156.764 90.8891 156.717 90.9438C156.67 90.9985 156.611 91.0422 156.544 91.0715C156.477 91.1009 156.404 91.1153 156.329 91.1137C156.255 91.1121 156.182 91.0945 156.115 91.0622C155.186 90.6052 155.343 89.1553 156.738 89.5887Z" fill="#231F20"/>
<path d="M78.1763 125.766C87.1761 125.766 94.4718 118.47 94.4718 109.47C94.4718 100.471 87.1761 93.1748 78.1763 93.1748C69.1766 93.1748 61.8809 100.471 61.8809 109.47C61.8809 118.47 69.1766 125.766 78.1763 125.766Z" fill="#414143"/>
<path d="M58.3416 117.539C64.1884 130.351 79.3571 135.063 90.9483 126.537C92.2406 125.587 94.1107 123.769 96.5587 121.084C100.136 125.3 99.5452 129.886 99.4506 135.662C98.6049 135.741 97.7617 135.78 96.9212 135.78C67.3771 135.812 37.8409 135.854 8.31254 135.906C8.03675 127.979 8.2495 117.578 19.1631 117.696C32.2383 117.838 45.2978 117.785 58.3416 117.539Z" fill="#F8A036"/>
<path d="M99.4516 135.662L99.2861 149.026H8.6681C8.19531 144.797 8.07712 140.424 8.31351 135.906C37.8419 135.854 67.3781 135.812 96.9222 135.78C97.7627 135.78 98.6058 135.741 99.4516 135.662Z" fill="#F7941D"/>
<path d="M8.66781 149.027H99.2858C106.162 149.573 108.936 153.342 107.607 160.334C107.108 162.961 105.566 164.849 102.981 166H4.87761C2.06189 164.734 0.436017 162.551 0 159.452V156.103C0.845768 151.354 3.73504 148.995 8.66781 149.027ZM8.84905 154.858C7.45432 155.134 6.72149 157.986 7.39916 159.168C7.8772 160.003 8.6468 160.521 9.70795 160.72C14.357 161.603 14.6407 153.739 8.84905 154.858ZM25.7276 154.968C23.4845 154.574 22.0767 155.183 21.5041 156.796C21.1941 157.652 21.2729 158.475 21.7404 159.263C24.0965 163.234 29.9512 159.003 26.3029 155.268C26.1439 155.108 25.9428 155.004 25.7276 154.968ZM41.2745 159.255C43.3391 155.874 37.9493 152.754 35.9557 156.323C34.0724 159.68 39.0997 162.824 41.2745 159.255ZM55.9074 157.765C55.9074 156.955 55.5853 156.177 55.0119 155.604C54.4385 155.03 53.6609 154.708 52.85 154.708C52.0391 154.708 51.2615 155.03 50.6881 155.604C50.1147 156.177 49.7926 156.955 49.7926 157.765C49.7926 158.576 50.1147 159.354 50.6881 159.927C51.2615 160.501 52.0391 160.823 52.85 160.823C53.6609 160.823 54.4385 160.501 55.0119 159.927C55.5853 159.354 55.9074 158.576 55.9074 157.765ZM68.1763 154.984C66.3166 154.858 65.3395 154.511 64.3703 156.339C63.2829 158.388 64.8037 160.996 67.2465 160.768C70.2093 160.492 71.0524 157.3 68.8618 155.283C68.6732 155.105 68.4305 154.999 68.1763 154.984ZM82.6752 154.976C80.8208 154.603 79.5101 154.981 78.7431 156.111C76.5604 159.326 81.3829 162.627 83.6917 159.641C84.7581 158.264 84.6005 156.812 83.2189 155.283C83.0758 155.125 82.8849 155.017 82.6752 154.976ZM97.9699 155.977C95.5429 152.644 90.9647 156.174 92.8717 159.318C95.0544 162.911 100.499 159.46 97.9699 155.977Z" fill="#414143"/>
<path d="M7.39926 159.168C6.72159 157.986 7.45442 155.134 8.84915 154.858C14.6408 153.739 14.3571 161.603 9.70805 160.72C8.6469 160.521 7.8773 160.003 7.39926 159.168Z" fill="#231F20"/>
<path d="M25.7273 154.968C25.9424 155.003 26.1436 155.108 26.3025 155.267C29.9509 159.002 24.0962 163.234 21.7401 159.262C21.2726 158.474 21.1938 157.652 21.5037 156.796C22.0763 155.183 23.4842 154.574 25.7273 154.968Z" fill="#231F20"/>
<path d="M35.9561 156.323C37.9497 152.753 43.3395 155.874 41.275 159.254C39.1001 162.824 34.0728 159.68 35.9561 156.323Z" fill="#231F20"/>
<path d="M52.8503 160.823C54.5389 160.823 55.9077 159.454 55.9077 157.765C55.9077 156.077 54.5389 154.708 52.8503 154.708C51.1618 154.708 49.793 156.077 49.793 157.765C49.793 159.454 51.1618 160.823 52.8503 160.823Z" fill="#231F20"/>
<path d="M64.3708 156.339C65.34 154.511 66.3171 154.857 68.1767 154.984C68.431 154.999 68.6736 155.105 68.8623 155.283C71.0529 157.3 70.2097 160.492 67.2469 160.767C64.8041 160.996 63.2833 158.388 64.3708 156.339Z" fill="#231F20"/>
<path d="M82.6749 154.976C82.8847 155.017 83.0755 155.124 83.2186 155.283C84.6002 156.812 84.7578 158.264 83.6914 159.641C81.3826 162.627 76.5602 159.325 78.7429 156.11C79.5098 154.981 80.8205 154.603 82.6749 154.976Z" fill="#231F20"/>
<path d="M97.9702 155.977C100.5 159.46 95.0547 162.911 92.872 159.318C90.9651 156.174 95.5433 152.644 97.9702 155.977Z" fill="#231F20"/>
</svg>
