<svg width="109" height="173" viewBox="0 0 109 173" fill="none" xmlns="http://www.w3.org/2000/svg">
<path d="M0 0H108.669V5.09193C107.831 16.3702 96.8165 14.1192 89.0544 14.1813C83.5589 14.2279 81.7115 16.7583 80.5239 22.0133C79.4424 26.8154 78.3893 31.6072 77.3647 36.3887C77.347 36.4701 77.3019 36.5431 77.2369 36.5953C77.1719 36.6476 77.091 36.676 77.0077 36.6759H31.2346C31.1083 36.6755 30.9857 36.6323 30.8871 36.5534C30.7884 36.4745 30.7194 36.3644 30.6913 36.2412C29.6149 31.3304 28.5257 26.4247 27.4235 21.5243C23.9616 6.09324 5.74394 21.4389 0.698588 8.42186C-0.139718 6.25624 0.33377 3.4386 0 0.923688V0Z" fill="#399BB6"/>
<path d="M62.6793 83.4348V92.0041C62.6792 92.1268 62.6432 92.247 62.5757 92.3503C62.5083 92.4536 62.4122 92.5355 62.299 92.5863L47.225 99.5256C47.1756 99.5475 47.1216 99.5567 47.0677 99.5525C47.0139 99.5483 46.9619 99.5308 46.9165 99.5016C46.8711 99.4723 46.8337 99.4323 46.8076 99.385C46.7815 99.3377 46.7676 99.2846 46.767 99.2306V83.4426C46.767 83.3396 46.7262 83.2409 46.6534 83.1681C46.5806 83.0953 46.4819 83.0545 46.3789 83.0545H39.2689C39.1546 83.0546 39.042 83.0255 38.9415 82.9698C38.8411 82.9142 38.7561 82.8338 38.6945 82.7362C35.186 77.1371 31.6672 71.5588 28.138 66.0011C26.8961 64.0451 27.1988 59.7061 27.1911 57.4085C27.1919 57.2991 27.1521 57.1931 27.0793 57.1102C27.0064 57.0274 26.9054 56.9734 26.7952 56.9583C24.6141 56.6556 21.8818 56.5469 21.7809 53.6982C21.6412 49.5999 20.7175 44.8417 25.8793 44.8339C44.8084 44.8236 63.7376 44.8236 82.6667 44.8339C86.245 44.8339 85.5775 50.1743 85.593 52.3166C85.6085 55.6543 83.994 57.393 80.6175 56.8031C80.5707 56.7941 80.5225 56.7953 80.4762 56.8066C80.4299 56.8178 80.3865 56.8389 80.349 56.8683C80.3115 56.8977 80.2807 56.9348 80.2587 56.9771C80.2368 57.0194 80.2241 57.066 80.2216 57.1136C80.0276 60.1951 80.7572 63.5639 79.0729 66.2806C75.642 71.8072 72.1724 77.3079 68.6639 82.7828C68.6069 82.8709 68.5287 82.9433 68.4365 82.9935C68.3443 83.0437 68.241 83.07 68.1361 83.07L63.0752 83.0467C63.0232 83.0467 62.9717 83.0567 62.9237 83.0762C62.8757 83.0957 62.832 83.1243 62.7953 83.1604C62.7585 83.1964 62.7293 83.2392 62.7095 83.2863C62.6896 83.3334 62.6793 83.3838 62.6793 83.4348Z" fill="#19303E"/>
<path d="M46.7666 125.008V108.925C46.7675 108.874 46.7825 108.825 46.81 108.783C46.8374 108.74 46.8761 108.706 46.9219 108.684L62.2908 101.613C62.3324 101.593 62.3784 101.585 62.4244 101.587C62.4704 101.59 62.5149 101.605 62.5537 101.63C62.5925 101.655 62.6244 101.689 62.6463 101.729C62.6682 101.77 62.6794 101.815 62.6789 101.862V117.983C62.678 118.034 62.663 118.083 62.6356 118.126C62.6081 118.168 62.5694 118.202 62.5237 118.224L47.1547 125.256C47.1131 125.276 47.0671 125.285 47.0211 125.282C46.9751 125.279 46.9306 125.265 46.8918 125.24C46.853 125.215 46.8212 125.181 46.7993 125.14C46.7773 125.1 46.7661 125.054 46.7666 125.008Z" fill="#19303E"/>
<path d="M46.7666 150.794V134.61C46.7664 134.561 46.7802 134.513 46.8064 134.472C46.8325 134.431 46.8699 134.398 46.9141 134.377L62.3141 127.322C62.3532 127.303 62.3963 127.295 62.4394 127.298C62.4825 127.301 62.5242 127.314 62.5606 127.338C62.597 127.361 62.6269 127.393 62.6476 127.431C62.6683 127.469 62.679 127.511 62.6789 127.554V143.676C62.6791 143.725 62.6653 143.773 62.6391 143.814C62.613 143.855 62.5756 143.888 62.5314 143.909L47.1314 151.027C47.0923 151.045 47.0492 151.053 47.0061 151.051C46.963 151.048 46.9213 151.034 46.8849 151.011C46.8485 150.988 46.8186 150.956 46.7979 150.918C46.7772 150.88 46.7665 150.837 46.7666 150.794Z" fill="#19303E"/>
<path d="M54.3969 172.916C51.0281 172.233 47.6982 163.5 47.0306 160.496C47.0021 160.374 47.0174 160.245 47.074 160.132C47.1306 160.019 47.225 159.928 47.3411 159.875L62.1201 153.114C62.1722 153.091 62.2293 153.08 62.2866 153.082C62.3438 153.085 62.3996 153.102 62.449 153.131C62.4985 153.16 62.5403 153.2 62.5709 153.249C62.6015 153.297 62.6199 153.352 62.6247 153.409C63.1421 159.454 61.7734 164.965 58.5185 169.943C57.2688 171.852 56.6711 173.381 54.3969 172.916Z" fill="#19303E"/>
</svg>
